<svg version="1" xmlns="http://www.w3.org/2000/svg" width="682.667" height="682.667" viewBox="0 0 512.000000 512.000000"><path d="M399.5 184.6c-1.1.2-4.5.9-7.5 1.5s-9.7 3.1-14.9 5.6c-7.9 3.8-10.8 5.9-17.6 12.7-6.5 6.5-9 10-12.8 17.6-6.4 12.7-8 20.9-7.4 37 .3 10.1.9 14 3.1 20.5 6 17.8 18.5 32.1 34.8 39.9 10.6 5 15.8 6.4 26.6 7.3 13.4 1 32.1-3.3 43.2-9.9 4.6-2.8 5.5-3.8 5.5-6.2 0-2-.9-3.5-2.7-4.9l-2.6-2-7.9 4.1c-11.7 6-18.1 7.6-30.3 7.6-11.8 0-18.8-1.7-28.5-6.7-12.2-6.5-23.1-20.9-27.1-35.7-2-7.9-2.3-25.2-.5-33 2.4-10.1 8.5-21.3 15.4-28.2 11.3-11.3 23.6-16.2 40.7-16.2 12.3 0 19 1.7 29.9 7.5 8.3 4.4 11.4 4.5 13.3.4 2-4.3-.2-7-9.4-11.4-4.6-2.2-11-4.7-14.3-5.6-5.9-1.5-25.1-2.8-29-1.9zM73.2 186.6l-2.2 1.5v67.3c0 63.9.1 67.4 1.8 68.9 1.9 1.8 4.9 2.2 6.8.9 3.2-2.1 3.4-5.1 3.4-60.4v-55.3l7.8 12c4.3 6.6 14.7 22.6 23.1 35.5 8.4 12.9 16 24.1 16.9 24.7 3 2.5 6 1.5 9.3-3 1.7-2.3 12.7-18.8 24.5-36.7l21.4-32.5v56.2c0 55 0 56.3 2 58.3 2.8 2.8 6.4 2.5 8.9-.6 2.1-2.6 2.1-3.4 2.1-66.3 0-40.9-.4-64.9-1.1-67.3-1-4-3.9-5.6-7.6-4.4-1 .4-13.7 18.6-28.3 40.6-14.6 22-26.8 40-27.3 40-.4 0-12.6-17.9-27.1-39.8-14.4-21.9-27.1-40.2-28-40.5-2.6-1-3.9-.9-6.4.9zM292.4 185.8c-.6.4-16 20.5-34.2 44.6-21.7 28.6-33.2 44.7-33.2 46.3 0 1.2.9 3.2 2 4.3 1.9 1.9 3.3 2 32.5 2H290v19.8c0 18 .2 20 1.8 21.5 2 1.8 4.9 2.2 6.9.9 2.6-1.6 3.3-6.9 3.3-24.3V283h7.5c6.2 0 7.9-.4 9.5-2 2.4-2.4 2.5-3.8.4-6.8-1.3-2-2.4-2.2-9.5-2.2H302v-39.9c0-39.3-.4-44.4-3.3-46.3-1.5-1-4.9-1-6.3 0zM290 240v32h-24c-13.2 0-24-.3-24-.7 0-.8 47-63.3 47.6-63.3.2 0 .4 14.4.4 32z"/></svg>